<mxfile host="Electron" modified="2024-04-23T13:31:53.046Z" agent="Mozilla/5.0 (Windows NT 10.0; Win64; x64) AppleWebKit/537.36 (KHTML, like Gecko) draw.io/24.2.5 Chrome/120.0.6099.109 Electron/28.1.0 Safari/537.36" etag="XUQvL-RSWvQzgVjyq05d" version="24.2.5" type="device">
  <diagram name="第 1 页" id="7CAEjnOOq5KJk8cqH8bf">
    <mxGraphModel dx="1199" dy="714" grid="1" gridSize="10" guides="1" tooltips="1" connect="1" arrows="1" fold="1" page="1" pageScale="1" pageWidth="827" pageHeight="1169" math="0" shadow="0">
      <root>
        <mxCell id="0" />
        <mxCell id="1" parent="0" />
        <mxCell id="_bQGoYJFsQOgRK8TIJvI-1" value="" style="rounded=0;whiteSpace=wrap;html=1;" vertex="1" parent="1">
          <mxGeometry x="10" y="70" width="480" height="350" as="geometry" />
        </mxCell>
        <mxCell id="_bQGoYJFsQOgRK8TIJvI-2" value="列表" style="rounded=1;whiteSpace=wrap;html=1;" vertex="1" parent="1">
          <mxGeometry x="30" y="90" width="440" height="50" as="geometry" />
        </mxCell>
        <mxCell id="_bQGoYJFsQOgRK8TIJvI-3" value="會員資料" style="text;html=1;align=center;verticalAlign=middle;resizable=0;points=[];autosize=1;strokeColor=none;fillColor=none;" vertex="1" parent="1">
          <mxGeometry x="10" y="40" width="70" height="30" as="geometry" />
        </mxCell>
        <mxCell id="_bQGoYJFsQOgRK8TIJvI-4" value="" style="rounded=1;whiteSpace=wrap;html=1;" vertex="1" parent="1">
          <mxGeometry x="30" y="160" width="80" height="250" as="geometry" />
        </mxCell>
        <mxCell id="_bQGoYJFsQOgRK8TIJvI-5" value="功能欄位" style="text;html=1;align=center;verticalAlign=middle;resizable=0;points=[];autosize=1;strokeColor=none;fillColor=none;" vertex="1" parent="1">
          <mxGeometry x="35" y="180" width="70" height="30" as="geometry" />
        </mxCell>
        <mxCell id="_bQGoYJFsQOgRK8TIJvI-8" value="" style="rounded=1;whiteSpace=wrap;html=1;" vertex="1" parent="1">
          <mxGeometry x="120" y="160" width="350" height="250" as="geometry" />
        </mxCell>
        <mxCell id="_bQGoYJFsQOgRK8TIJvI-7" value="姓名" style="rounded=1;whiteSpace=wrap;html=1;" vertex="1" parent="1">
          <mxGeometry x="180" y="200" width="75" height="20" as="geometry" />
        </mxCell>
        <mxCell id="_bQGoYJFsQOgRK8TIJvI-10" value="生日" style="rounded=1;whiteSpace=wrap;html=1;" vertex="1" parent="1">
          <mxGeometry x="172.5" y="250" width="245" height="20" as="geometry" />
        </mxCell>
        <mxCell id="_bQGoYJFsQOgRK8TIJvI-12" value="email" style="rounded=1;whiteSpace=wrap;html=1;" vertex="1" parent="1">
          <mxGeometry x="175" y="280" width="245" height="20" as="geometry" />
        </mxCell>
        <mxCell id="_bQGoYJFsQOgRK8TIJvI-13" value="手機號" style="rounded=1;whiteSpace=wrap;html=1;" vertex="1" parent="1">
          <mxGeometry x="175" y="310" width="245" height="20" as="geometry" />
        </mxCell>
        <mxCell id="_bQGoYJFsQOgRK8TIJvI-14" value="會員等級" style="rounded=1;whiteSpace=wrap;html=1;" vertex="1" parent="1">
          <mxGeometry x="175" y="340" width="245" height="20" as="geometry" />
        </mxCell>
        <mxCell id="_bQGoYJFsQOgRK8TIJvI-19" style="edgeStyle=orthogonalEdgeStyle;rounded=0;orthogonalLoop=1;jettySize=auto;html=1;exitX=1;exitY=0.5;exitDx=0;exitDy=0;" edge="1" parent="1" source="_bQGoYJFsQOgRK8TIJvI-16" target="_bQGoYJFsQOgRK8TIJvI-20">
          <mxGeometry relative="1" as="geometry">
            <mxPoint x="560" y="350" as="targetPoint" />
          </mxGeometry>
        </mxCell>
        <mxCell id="_bQGoYJFsQOgRK8TIJvI-16" value="編輯基本資料" style="rounded=1;whiteSpace=wrap;html=1;" vertex="1" parent="1">
          <mxGeometry x="340" y="370" width="80" height="20" as="geometry" />
        </mxCell>
        <mxCell id="_bQGoYJFsQOgRK8TIJvI-30" style="edgeStyle=orthogonalEdgeStyle;rounded=0;orthogonalLoop=1;jettySize=auto;html=1;exitX=0.5;exitY=1;exitDx=0;exitDy=0;" edge="1" parent="1" source="_bQGoYJFsQOgRK8TIJvI-17" target="_bQGoYJFsQOgRK8TIJvI-31">
          <mxGeometry relative="1" as="geometry">
            <mxPoint x="290" y="810" as="targetPoint" />
          </mxGeometry>
        </mxCell>
        <mxCell id="_bQGoYJFsQOgRK8TIJvI-17" value="修改密碼" style="rounded=1;whiteSpace=wrap;html=1;" vertex="1" parent="1">
          <mxGeometry x="175" y="370" width="80" height="20" as="geometry" />
        </mxCell>
        <mxCell id="_bQGoYJFsQOgRK8TIJvI-20" value="姓名&lt;div&gt;生日&lt;/div&gt;&lt;div&gt;email&lt;/div&gt;&lt;div&gt;手機號&lt;/div&gt;&lt;div&gt;&lt;br&gt;&lt;/div&gt;" style="rounded=1;whiteSpace=wrap;html=1;" vertex="1" parent="1">
          <mxGeometry x="540" y="165" width="260" height="240" as="geometry" />
        </mxCell>
        <mxCell id="_bQGoYJFsQOgRK8TIJvI-22" value="修改" style="rounded=1;whiteSpace=wrap;html=1;" vertex="1" parent="1">
          <mxGeometry x="710" y="350" width="60" height="20" as="geometry" />
        </mxCell>
        <mxCell id="_bQGoYJFsQOgRK8TIJvI-23" value="取消" style="rounded=1;whiteSpace=wrap;html=1;" vertex="1" parent="1">
          <mxGeometry x="580" y="350" width="70" height="20" as="geometry" />
        </mxCell>
        <mxCell id="_bQGoYJFsQOgRK8TIJvI-31" value="" style="rounded=1;whiteSpace=wrap;html=1;" vertex="1" parent="1">
          <mxGeometry x="50" y="490" width="330" height="180" as="geometry" />
        </mxCell>
        <mxCell id="_bQGoYJFsQOgRK8TIJvI-37" style="edgeStyle=entityRelationEdgeStyle;rounded=0;orthogonalLoop=1;jettySize=auto;html=1;exitX=0.5;exitY=0;exitDx=0;exitDy=0;entryX=1.005;entryY=0.072;entryDx=0;entryDy=0;entryPerimeter=0;" edge="1" parent="1" source="_bQGoYJFsQOgRK8TIJvI-22" target="_bQGoYJFsQOgRK8TIJvI-1">
          <mxGeometry relative="1" as="geometry" />
        </mxCell>
        <mxCell id="_bQGoYJFsQOgRK8TIJvI-39" style="edgeStyle=none;rounded=0;orthogonalLoop=1;jettySize=auto;html=1;exitX=0;exitY=0.5;exitDx=0;exitDy=0;entryX=1.002;entryY=0.832;entryDx=0;entryDy=0;entryPerimeter=0;" edge="1" parent="1" source="_bQGoYJFsQOgRK8TIJvI-23" target="_bQGoYJFsQOgRK8TIJvI-1">
          <mxGeometry relative="1" as="geometry" />
        </mxCell>
        <mxCell id="_bQGoYJFsQOgRK8TIJvI-41" value="新密碼" style="rounded=1;whiteSpace=wrap;html=1;" vertex="1" parent="1">
          <mxGeometry x="87.5" y="530" width="260" height="20" as="geometry" />
        </mxCell>
        <mxCell id="_bQGoYJFsQOgRK8TIJvI-42" value="確認新密碼" style="rounded=1;whiteSpace=wrap;html=1;" vertex="1" parent="1">
          <mxGeometry x="87.5" y="570" width="260" height="20" as="geometry" />
        </mxCell>
        <mxCell id="_bQGoYJFsQOgRK8TIJvI-43" value="送出" style="rounded=1;whiteSpace=wrap;html=1;" vertex="1" parent="1">
          <mxGeometry x="227.5" y="630" width="120" height="20" as="geometry" />
        </mxCell>
        <mxCell id="_bQGoYJFsQOgRK8TIJvI-44" value="取消" style="rounded=1;whiteSpace=wrap;html=1;" vertex="1" parent="1">
          <mxGeometry x="87.5" y="630" width="120" height="20" as="geometry" />
        </mxCell>
        <mxCell id="_bQGoYJFsQOgRK8TIJvI-46" value="會員資料" style="rounded=1;whiteSpace=wrap;html=1;" vertex="1" parent="1">
          <mxGeometry x="40" y="210" width="60" height="25" as="geometry" />
        </mxCell>
      </root>
    </mxGraphModel>
  </diagram>
</mxfile>
